<svg width="20" height="19" viewBox="0 0 20 19" fill="none" xmlns="http://www.w3.org/2000/svg">
<path d="M19.6641 8.175L10.6908 0.260571C10.2969 -0.0868697 9.70295 -0.0868319 9.30924 0.260533L0.33586 8.17503C0.0203532 8.45332 -0.0838653 8.88209 0.070275 9.26734C0.224454 9.65259 0.599844 9.9015 1.02668 9.9015H2.45988V17.8312C2.45988 18.1456 2.72324 18.4005 3.04804 18.4005H7.96655C8.29135 18.4005 8.55471 18.1456 8.55471 17.8312V13.0165H11.4454V17.8312C11.4454 18.1456 11.7088 18.4005 12.0336 18.4005H16.9518C17.2766 18.4005 17.54 18.1456 17.54 17.8312V9.9015H18.9735C19.4003 9.9015 19.7757 9.65256 19.9299 9.26734C20.0838 8.88205 19.9796 8.45332 19.6641 8.175Z" fill="#083863"/>
</svg>
