<svg width="100" height="54" viewBox="0 0 105 59" fill="none" xmlns="http://www.w3.org/2000/svg">
<path d="M27.2222 49H28.8585C28.3727 46.4688 26.2506 44.7301 23.4892 44.7301C20.1334 44.7301 17.7619 47.3125 17.7619 51.4545C17.7619 55.5966 20.1142 58.179 23.5915 58.179C26.7108 58.179 28.9352 56.1016 28.9352 52.8608V51.4545H23.9494V52.8608H27.4011C27.3564 55.2131 25.8095 56.696 23.5915 56.696C21.1625 56.696 19.296 54.8551 19.296 51.4545C19.296 48.054 21.1625 46.2131 23.4892 46.2131C25.3813 46.2131 26.6661 47.2805 27.2222 49ZM35.5622 58.2045C37.5565 58.2045 39.0139 57.2074 39.4741 55.7244L38.0167 55.3153C37.6332 56.3381 36.7447 56.8494 35.5622 56.8494C33.7916 56.8494 32.5707 55.7053 32.5004 53.6023H39.6275V52.9631C39.6275 49.3068 37.4542 48.054 35.4088 48.054C32.7497 48.054 30.9855 50.1506 30.9855 53.1676C30.9855 56.1847 32.7241 58.2045 35.5622 58.2045ZM32.5004 52.2983C32.6027 50.7706 33.6829 49.4091 35.4088 49.4091C37.0451 49.4091 38.0934 50.6364 38.0934 52.2983H32.5004ZM46.1922 48.1818H44.0956V45.8295H42.5871V48.1818H41.1041V49.4602H42.5871V55.5966C42.5871 57.3097 43.9677 58.1278 45.2461 58.1278C45.8086 58.1278 46.1666 58.0256 46.3711 57.9489L46.0643 56.5938C45.9365 56.6193 45.7319 56.6705 45.3996 56.6705C44.7348 56.6705 44.0956 56.4659 44.0956 55.1875V49.4602H46.1922V48.1818ZM52.9166 58C56.9052 58 59.1552 55.5199 59.1552 51.429C59.1552 47.3636 56.9052 44.9091 53.0956 44.9091H48.8768V58H52.9166ZM50.4621 56.5938V46.3153H52.9933C56.0615 46.3153 57.6211 48.2585 57.6211 51.429C57.6211 54.625 56.0615 56.5938 52.8143 56.5938H50.4621ZM65.5984 58.2045C68.2575 58.2045 70.0473 56.1847 70.0473 53.142C70.0473 50.0739 68.2575 48.054 65.5984 48.054C62.9393 48.054 61.1496 50.0739 61.1496 53.142C61.1496 56.1847 62.9393 58.2045 65.5984 58.2045ZM65.5984 56.8494C63.5785 56.8494 62.6581 55.1108 62.6581 53.142C62.6581 51.1733 63.5785 49.4091 65.5984 49.4091C67.6183 49.4091 68.5388 51.1733 68.5388 53.142C68.5388 55.1108 67.6183 56.8494 65.5984 56.8494ZM76.3386 58.2045C78.5119 58.2045 79.9438 56.875 80.1994 55.1364H78.6909C78.4097 56.2102 77.5148 56.8494 76.3386 56.8494C74.5489 56.8494 73.3983 55.3665 73.3983 53.0909C73.3983 50.8665 74.5744 49.4091 76.3386 49.4091C77.6682 49.4091 78.4608 50.2273 78.6909 51.1222H80.1994C79.9438 49.2812 78.3841 48.054 76.3131 48.054C73.654 48.054 71.8898 50.1506 71.8898 53.142C71.8898 56.0824 73.5773 58.2045 76.3386 58.2045ZM86.6746 48.1818H84.578V45.8295H83.0695V48.1818H81.5865V49.4602H83.0695V55.5966C83.0695 57.3097 84.4502 58.1278 85.7286 58.1278C86.2911 58.1278 86.649 58.0256 86.8536 57.9489L86.5467 56.5938C86.4189 56.6193 86.2144 56.6705 85.882 56.6705C85.2172 56.6705 84.578 56.4659 84.578 55.1875V49.4602H86.6746V48.1818ZM92.8269 58.2045C95.486 58.2045 97.2758 56.1847 97.2758 53.142C97.2758 50.0739 95.486 48.054 92.8269 48.054C90.1678 48.054 88.3781 50.0739 88.3781 53.142C88.3781 56.1847 90.1678 58.2045 92.8269 58.2045ZM92.8269 56.8494C90.807 56.8494 89.8866 55.1108 89.8866 53.142C89.8866 51.1733 90.807 49.4091 92.8269 49.4091C94.8468 49.4091 95.7673 51.1733 95.7673 53.142C95.7673 55.1108 94.8468 56.8494 92.8269 56.8494ZM99.5785 58H101.087V51.7869C101.087 50.4574 102.135 49.4858 103.567 49.4858C103.97 49.4858 104.385 49.5625 104.488 49.5881V48.054C104.315 48.0412 103.919 48.0284 103.695 48.0284C102.519 48.0284 101.496 48.6932 101.138 49.6648H101.036V48.1818H99.5785V58Z" fill="black"/>
<path d="M56.6714 1.55719H51.9998V4.47688H55.2114V9.97563C55.2114 14.8053 51.282 18.7348 46.4523 18.7348C41.6226 18.7348 37.6932 14.8054 37.6932 9.97571V4.47688H40.8076V1.55719H36.2334C35.4271 1.55719 34.7736 2.21071 34.7736 3.01703V9.97571C34.7736 16.4156 40.0125 21.6545 46.4524 21.6545C52.8923 21.6545 58.1312 16.4156 58.1312 9.97571V3.01703C58.1312 2.21071 57.4777 1.55719 56.6714 1.55719Z" fill="#009AA3"/>
<path d="M62.3647 22.871V29.781C62.3647 33.8059 59.0903 37.0803 55.0654 37.0803C51.0406 37.0803 47.7661 33.8059 47.7661 29.781V20.2433H44.8464V29.781C44.8464 35.4156 49.4303 40 55.0654 40C60.7 40 65.2844 35.4156 65.2844 29.781V22.871H62.3647Z" fill="#009AA3"/>
<path d="M63.825 13.4307C60.846 13.4307 58.4231 15.8536 58.4231 18.8321C58.4231 21.8103 60.846 24.2336 63.8246 24.2336C66.8032 24.2336 69.2261 21.8103 69.2265 18.8321C69.2265 15.8536 66.8032 13.4307 63.825 13.4307ZM63.8246 21.3139C62.4558 21.3139 61.3423 20.2006 61.3423 18.8322C61.3423 17.4639 62.4557 16.3505 63.8246 16.3505C65.1929 16.3505 66.3063 17.4639 66.3063 18.8322C66.3063 20.2006 65.1929 21.3139 63.8246 21.3139Z" fill="#009AA3"/>
<path d="M40.7589 0C39.9526 0 39.2991 0.653516 39.2991 1.45984V4.57422C39.2991 5.38055 39.9526 6.03406 40.7589 6.03406C41.5652 6.03406 42.2187 5.38055 42.2187 4.57422V1.45984C42.2187 0.653516 41.5652 0 40.7589 0Z" fill="#009AA3"/>
<path d="M52.0485 0C51.2421 0 50.5886 0.653516 50.5886 1.45984V4.57422C50.5886 5.38055 51.2421 6.03406 52.0485 6.03406C52.8548 6.03406 53.5083 5.38055 53.5083 4.57422V1.45984C53.5083 0.653516 52.8548 0 52.0485 0Z" fill="#009AA3"/>
</svg>
