<svg width="20" height="20" viewBox="0 0 20 20" fill="none" xmlns="http://www.w3.org/2000/svg">
<path fill-rule="evenodd" clip-rule="evenodd" d="M17.2293 9.6795C17.2293 10.0086 17.1993 10.3184 17.1593 10.6281L19.2693 12.2252C19.4593 12.3704 19.5093 12.6318 19.3893 12.8447L17.3893 16.1938C17.2993 16.3487 17.1293 16.4358 16.9593 16.4358C16.8993 16.4358 16.8393 16.4261 16.7793 16.4068L14.2893 15.4388C13.7693 15.8163 13.2093 16.1454 12.5993 16.3874L12.2193 18.9525C12.1893 19.1848 11.9793 19.359 11.7293 19.359H7.72933C7.47933 19.359 7.26933 19.1848 7.23933 18.9525L6.85933 16.3874C6.24933 16.1454 5.68933 15.826 5.16933 15.4388L2.67933 16.4068C2.62933 16.4261 2.56933 16.4358 2.50933 16.4358C2.32933 16.4358 2.15933 16.3487 2.06933 16.1938L0.0693316 12.8447C-0.0506684 12.6318 -0.000668393 12.3704 0.189332 12.2252L2.29933 10.6281C2.25933 10.3184 2.22933 9.99893 2.22933 9.6795C2.22933 9.36008 2.25933 9.04066 2.29933 8.73091L0.189332 7.13379C-0.000668393 6.9886 -0.0606684 6.72726 0.0693316 6.51431L2.06933 3.1652C2.15933 3.01033 2.32933 2.92321 2.49933 2.92321C2.55933 2.92321 2.61933 2.93289 2.67933 2.95225L5.16933 3.9202C5.68933 3.5427 6.24933 3.2136 6.85933 2.97161L7.23933 0.406539C7.26933 0.174231 7.47933 0 7.72933 0H11.7293C11.9793 0 12.1893 0.174231 12.2193 0.406539L12.5993 2.97161C13.2093 3.2136 13.7693 3.53302 14.2893 3.9202L16.7793 2.95225C16.8293 2.93289 16.8893 2.92321 16.9493 2.92321C17.1293 2.92321 17.2993 3.01033 17.3893 3.1652L19.3893 6.51431C19.5093 6.72726 19.4593 6.9886 19.2693 7.13379L17.1593 8.73091C17.1993 9.04066 17.2293 9.3504 17.2293 9.6795ZM15.2293 9.67947C15.2293 9.4762 15.2193 9.27293 15.1793 8.97287L15.0393 7.87908L15.9293 7.20151L16.9993 6.37876L16.2993 5.20753L15.0293 5.70119L13.9693 6.11741L13.0593 5.43984C12.6593 5.14946 12.2593 4.92683 11.8293 4.75259L10.7693 4.33637L10.6093 3.24259L10.4193 1.93585H9.02934L8.82934 3.24259L8.66934 4.33637L7.60934 4.75259C7.19934 4.91715 6.78934 5.14946 6.35934 5.4592L5.45934 6.11741L4.41934 5.71087L3.14934 5.21721L2.44934 6.38843L3.52934 7.20151L4.41934 7.87908L4.27934 8.97287C4.24934 9.26325 4.22934 9.48588 4.22934 9.67947C4.22934 9.87306 4.24934 10.0957 4.27934 10.3958L4.41934 11.4895L3.52934 12.1671L2.44934 12.9802L3.14934 14.1514L4.41934 13.6578L5.47934 13.2415L6.38934 13.9191C6.78934 14.2095 7.18934 14.4321 7.61934 14.6064L8.67934 15.0226L8.83934 16.1164L9.02934 17.4231H10.4293L10.6293 16.1164L10.7893 15.0226L11.8493 14.6064C12.2593 14.4418 12.6693 14.2095 13.0993 13.8997L13.9993 13.2415L15.0393 13.6481L16.3093 14.1417L17.0093 12.9705L15.9293 12.1574L15.0393 11.4799L15.1793 10.3861C15.2093 10.0957 15.2293 9.88274 15.2293 9.67947ZM9.72934 5.80768C7.51934 5.80768 5.72934 7.54029 5.72934 9.67944C5.72934 11.8186 7.51934 13.5512 9.72934 13.5512C11.9393 13.5512 13.7293 11.8186 13.7293 9.67944C13.7293 7.54029 11.9393 5.80768 9.72934 5.80768ZM7.72934 9.67941C7.72934 10.7441 8.62934 11.6153 9.72934 11.6153C10.8293 11.6153 11.7293 10.7441 11.7293 9.67941C11.7293 8.61468 10.8293 7.74353 9.72934 7.74353C8.62934 7.74353 7.72934 8.61468 7.72934 9.67941Z" fill="#009AA3"/>
</svg>
